<svg viewBox="0 0 56 56" fill="none" xmlns="http://www.w3.org/2000/svg">
<path opacity="0.2" d="M28 56C43.464 56 56 43.464 56 28C56 12.536 43.464 0 28 0C12.536 0 0 12.536 0 28C0 43.464 12.536 56 28 56Z" fill="#767DFF"/>
<path fill-rule="evenodd" clip-rule="evenodd" d="M31.8402 12.9231H24.1598C23.6179 12.9228 23.1181 13.2072 22.8527 13.6669L10.9602 34.3038C10.7056 34.7462 10.7056 35.2854 10.9602 35.7278L14.7642 42.3315C15.0291 42.7917 15.529 43.0769 16.0712 43.0769H39.9287C40.4704 43.0762 40.9695 42.7912 41.2341 42.3315L45.0398 35.7278C45.2944 35.2854 45.2944 34.7462 45.0398 34.3038L33.1472 13.6669C32.8819 13.2072 32.3821 12.9228 31.8402 12.9231ZM19.9872 35.0158L28 21.1333L36.0128 35.0158H19.9872Z" fill="#767DFF"/>
</svg>
