<svg width="100%" height="100%" viewBox="0 0 54 54" fill="none" xmlns="http://www.w3.org/2000/svg">
<path opacity="0.1" d="M27 54C41.9117 54 54 41.9117 54 27C54 12.0883 41.9117 0 27 0C12.0883 0 0 12.0883 0 27C0 41.9117 12.0883 54 27 54Z" fill="#662D91"/>
<mask id="mask0" mask-type="alpha" maskUnits="userSpaceOnUse" x="0" y="0" width="54" height="54">
<path d="M27 54C41.9117 54 54 41.9117 54 27C54 12.0883 41.9117 0 27 0C12.0883 0 0 12.0883 0 27C0 41.9117 12.0883 54 27 54Z" fill="white"/>
</mask>
<g mask="url(#mask0)">
<path fill-rule="evenodd" clip-rule="evenodd" d="M43.6154 37.3447L28.1131 27.7055L12.4615 37.3846L43.6154 37.3447Z" fill="#662D91"/>
<path fill-rule="evenodd" clip-rule="evenodd" d="M28.1181 8.30768L28.1131 27.7055L43.6154 37.3447L28.1181 8.30768Z" fill="#9E1F63"/>
<path fill-rule="evenodd" clip-rule="evenodd" d="M12.4615 37.3846L28.1131 27.7055L28.1181 8.30768L12.4615 37.3846Z" fill="#FF5000"/>
<path fill-rule="evenodd" clip-rule="evenodd" d="M28.0813 20.075L21.6815 31.6829H34.5097L28.0813 20.075Z" fill="white" stroke="#FF5000" stroke-width="0.5"/>
</g>
</svg>
