<svg width="100%" height="100%" viewBox="0 0 54 54" fill="none" xmlns="http://www.w3.org/2000/svg">
<path opacity="0.2" fill-rule="evenodd" clip-rule="evenodd" d="M27 54C41.9117 54 54 41.9117 54 27C54 12.0883 41.9117 0 27 0C12.0883 0 0 12.0883 0 27C0 41.9117 12.0883 54 27 54Z" fill="#F04086"/>
<path fill-rule="evenodd" clip-rule="evenodd" d="M33.9446 26.5171C35.7148 26.7767 37.0701 27.4258 38.0105 28.4642C38.9629 29.5336 39.4807 30.9235 39.461 32.3585C39.461 34.5281 38.7302 36.2972 37.1734 37.4944C35.6166 38.6916 33.3711 39.4615 30.4346 39.4615H18.8859V32.3407H23.9793V35.456H29.9917C31.3669 35.456 32.4033 35.0822 33.092 34.5148C33.7807 33.9473 34.1262 33.0438 34.1262 31.9846C34.1262 30.9254 33.7763 30.2089 33.092 29.6548C32.4077 29.1007 31.3713 29.0028 29.9917 29.0028H12.4615V24.9973H18.8837V14.5385H30.0692C33.03 14.5385 35.2158 14.9234 36.6707 16.0962C38.1256 17.2689 38.8299 18.7598 38.8299 20.9539C38.8377 22.2736 38.3812 23.5535 37.541 24.5678C36.7128 25.5892 35.4948 26.2278 33.9446 26.4793V26.5171ZM23.9793 24.9884H29.3517C32.1132 24.9884 33.4929 23.9046 33.4929 21.7617C33.4929 19.6188 32.1132 18.5351 29.3517 18.5351H23.9793V24.9884Z" fill="#F04086"/>
</svg>
