<svg width="100%" height="100%" viewBox="0 0 54 54" fill="none" xmlns="http://www.w3.org/2000/svg">
<path opacity="0.2" d="M27 54C41.9117 54 54 41.9117 54 27C54 12.0883 41.9117 0 27 0C12.0883 0 0 12.0883 0 27C0 41.9117 12.0883 54 27 54Z" fill="#F3BA2F"/>
<path fill-rule="evenodd" clip-rule="evenodd" d="M21.3553 24.6793L27.0028 19.0343L32.6525 24.6839L35.9367 21.3975L27.0028 12.4615L18.0688 21.3952L21.3553 24.6793ZM12.4615 27.0005L15.7468 23.7153L19.0321 27.0005L15.7468 30.2857L12.4615 27.0005ZM27.0028 34.968L21.3553 29.3207L18.0642 32.6025L18.0688 32.6071L27.0028 41.5385L35.9367 32.6025L35.939 32.6002L32.6525 29.3184L27.0028 34.968ZM34.9679 27.0013L38.2532 23.7161L41.5385 27.0013L38.2532 30.2865L34.9679 27.0013ZM27.0028 23.6642L30.3352 26.9989H30.3375L30.3352 27.0012L27.0028 30.3358L23.6703 27.0058L23.6658 26.9989L23.6703 26.9943L24.2537 26.4109L24.5385 26.1285L27.0028 23.6642Z" fill="#F3BA2F"/>
</svg>
