<svg width="100%" height="100%" viewBox="0 0 54 54" fill="none" xmlns="http://www.w3.org/2000/svg">
<path opacity="0.2" d="M27 54C41.9117 54 54 41.9117 54 27C54 12.0883 41.9117 0 27 0C12.0883 0 0 12.0883 0 27C0 41.9117 12.0883 54 27 54Z" fill="#0D65AE"/>
<path fill-rule="evenodd" clip-rule="evenodd" d="M32.7851 10.5412C36.4069 15.6344 39.9291 20.8032 43.4674 25.9558C43.4055 25.9234 43.2817 25.8586 43.2198 25.8262C38.9389 23.5913 34.5449 21.5751 30.1912 19.4887C31.0146 16.4954 31.9617 13.5345 32.7851 10.5412Z" fill="#0D65AE"/>
<path fill-rule="evenodd" clip-rule="evenodd" d="M11.6035 28.0827C16.0298 30.0854 20.3808 32.2582 24.7452 34.3959C23.8976 37.3838 22.9989 40.3582 22.1486 43.3461C18.621 38.2637 15.1284 33.1624 11.6035 28.0827Z" fill="#0D65AE"/>
<path opacity="0.71" fill-rule="evenodd" clip-rule="evenodd" d="M11.8 25.8019C17.9349 23.7074 24.0671 21.6156 30.1912 19.4887C34.5449 21.5751 38.9389 23.5914 43.2198 25.8262C33.5762 25.9126 23.9325 25.8316 14.2889 25.864C13.4601 25.8667 12.6287 25.8721 11.8 25.8019Z" fill="#4382B6"/>
<path opacity="0.71" fill-rule="evenodd" clip-rule="evenodd" d="M11.3856 27.9909C22.0329 28.0395 32.6802 28.0503 43.3275 28.0044C40.9462 28.663 38.6644 29.6158 36.3019 30.3391C32.4676 31.7426 28.5553 32.9249 24.7452 34.3959C20.3808 32.2582 16.0298 30.0854 11.6035 28.0827L11.3856 27.9909Z" fill="#4382B6"/>
</svg>
