<svg width="100%" height="100%" viewBox="0 0 54 54" fill="none" xmlns="http://www.w3.org/2000/svg">
<path opacity="0.2" d="M53.19 33.532C49.5838 47.9964 34.9329 56.7984 20.4668 53.1922C6.0075 49.586 -2.79534 34.9351 0.811687 20.4716C4.41619 6.00547 19.0662 -2.79822 33.5281 0.807971C47.9933 4.41416 56.7953 19.0667 53.1892 33.532H53.19Z" fill="#F7931A"/>
<path fill-rule="evenodd" clip-rule="evenodd" d="M35.1317 23.8632C35.4957 21.426 33.6401 20.1158 31.1027 19.2418L31.9258 15.9402L29.9155 15.4394L29.1142 18.6539C28.5865 18.5223 28.0438 18.3981 27.5046 18.275L28.3117 15.0393L26.3032 14.5385L25.4795 17.8389C25.0422 17.7393 24.6129 17.6408 24.1962 17.5372L24.1985 17.5269L21.427 16.8349L20.8924 18.9813C20.8924 18.9813 22.3835 19.3231 22.352 19.3442C23.1659 19.5474 23.3136 20.0861 23.2884 20.5131L22.3509 24.2742C22.407 24.2885 22.4796 24.3091 22.5598 24.3412L22.348 24.2885L21.0332 29.5574C20.9336 29.8046 20.6812 30.1755 20.1123 30.0347C20.1323 30.0639 18.6515 29.6701 18.6515 29.6701L17.6538 31.9711L20.2697 32.6231C20.5649 32.6971 20.8567 32.7732 21.1452 32.8484C21.332 32.8972 21.5175 32.9456 21.7018 32.9928L20.8701 36.3327L22.8775 36.8335L23.7017 33.5297C24.2495 33.6785 24.7818 33.8159 25.3027 33.9453L24.4819 37.2336L26.4915 37.7345L27.3232 34.4015C30.7501 35.05 33.3275 34.7884 34.4111 31.6895C35.2851 29.1939 34.3681 27.7543 32.5651 26.815C33.8782 26.5111 34.8673 25.6474 35.1311 23.8632H35.1317ZM30.5394 30.302C29.9689 32.5925 26.3829 31.6448 24.7436 31.2116L24.7436 31.2116C24.5968 31.1728 24.4656 31.1381 24.3536 31.1102L25.4572 26.6863C25.5941 26.7204 25.7614 26.758 25.9509 26.8005C27.6468 27.181 31.1223 27.961 30.54 30.302H30.5394ZM26.2917 24.7476C27.6596 25.1125 30.6411 25.9079 31.1605 23.8272C31.6915 21.6985 28.7923 21.0569 27.3763 20.7436C27.2172 20.7083 27.0767 20.6773 26.962 20.6487L25.9615 24.6611C26.0562 24.6847 26.1673 24.7144 26.2917 24.7476Z" fill="#F7931A"/>
</svg>
