<svg viewBox="0 0 56 56" fill="none" xmlns="http://www.w3.org/2000/svg">
<path opacity="0.2" d="M28 56C43.464 56 56 43.464 56 28C56 12.536 43.464 0 28 0C12.536 0 0 12.536 0 28C0 43.464 12.536 56 28 56Z" fill="#F13D20"/>
<path fill-rule="evenodd" clip-rule="evenodd" d="M8.61539 28C8.61539 17.3113 17.3113 8.61539 28 8.61539C38.6885 8.61539 47.3846 17.3113 47.3846 28C47.3846 38.6887 38.6887 47.3846 28 47.3846C17.3113 47.3846 8.61539 38.6887 8.61539 28ZM11.6549 28.0002C11.6549 37.0127 18.9873 44.3451 28 44.3451C37.0139 44.3451 44.3451 37.0127 44.3451 28C44.3451 18.9873 37.0125 11.6549 28 11.6549C18.9875 11.6549 11.6549 18.9877 11.6549 28.0002Z" fill="#F13D20"/>
<path fill-rule="evenodd" clip-rule="evenodd" d="M28 19.2984C23.2019 19.2984 19.2984 23.2019 19.2984 28.0002C19.2984 30.5977 20.4433 32.9305 22.2534 34.526C23.1572 34.0574 24.1173 33.7064 25.1101 33.4814C23.1444 32.4404 21.8016 30.3748 21.8016 28.0004C21.8016 24.5825 24.5823 21.802 28 21.802C31.4177 21.802 34.1984 24.5823 34.1984 28C34.1984 30.3746 32.8558 32.4402 30.8899 33.481C31.8827 33.706 32.8428 34.0571 33.7466 34.5256C35.5565 32.9305 36.7018 30.5975 36.7018 28C36.7018 23.2017 32.7981 19.2982 28 19.2982" fill="#F13D20"/>
<path fill-rule="evenodd" clip-rule="evenodd" d="M28 13.756C20.1455 13.756 13.7556 20.1455 13.7556 28.0002C13.7556 32.0657 15.4704 35.736 18.2113 38.3335C18.6692 37.5103 19.2736 36.7543 20.0004 36.0898C17.9128 34.0249 16.6164 31.1614 16.6164 28C16.6164 21.7231 21.7231 16.6164 28 16.6164C34.2769 16.6164 39.3834 21.7231 39.3834 28C39.3834 31.1612 38.087 34.0247 35.9991 36.0898C36.726 36.7543 37.3306 37.5103 37.7886 38.3335C40.5294 35.736 42.2442 32.0657 42.2442 28.0002C42.244 20.1455 35.8541 13.756 28 13.756" fill="#F13D20"/>
</svg>
