<svg width="100%" height="100%" viewBox="0 0 54 54" fill="none" xmlns="http://www.w3.org/2000/svg">
<path opacity="0.2" d="M27 54C41.9117 54 54 41.9117 54 27C54 12.0883 41.9117 0 27 0C12.0883 0 0 12.0883 0 27C0 41.9117 12.0883 54 27 54Z" fill="#2573C2"/>
<path d="M40.0367 21.0869C40.0105 20.6499 39.8823 20.2252 39.6623 19.8467C39.4673 19.4567 39.1202 19.1525 38.7146 18.9965C38.3009 18.7904 37.8427 18.6899 37.3808 18.704H20.0726L18.8324 22.4207H34.5143L32.0378 30.0179H16.3598L15.1196 33.7346H32.5097C33.0278 33.7196 33.5402 33.6208 34.0268 33.4421C34.5143 33.1652 35.072 32.8844 35.5439 32.4944C36.0046 32.1312 36.4208 31.7149 36.7841 31.2542C37.0843 30.8028 37.3403 30.3235 37.5485 29.8229L39.8456 22.6001C40.0545 22.1249 40.1209 21.5992 40.0367 21.0869V21.0869Z" fill="#2573C2"/>
<path d="M25.0139 24.4955H15.7865L14.5463 27.9314H23.8673L25.0139 24.4955Z" fill="#2573C2"/>
</svg>
