<svg  viewBox="0 0 56 56" fill="none" xmlns="http://www.w3.org/2000/svg">
<path opacity="0.2" d="M28 56C43.464 56 56 43.464 56 28C56 12.536 43.464 0 28 0C12.536 0 0 12.536 0 28C0 43.464 12.536 56 28 56Z" fill="#CECCCC"/>
<path fill-rule="evenodd" clip-rule="evenodd" d="M34.7288 28L41.3943 31.8398C42.1635 32.2747 42.7276 33.006 42.9594 33.8686C43.1912 34.7313 43.0711 35.6524 42.6261 36.4239C41.6974 38.0291 39.6394 38.5789 38.0307 37.6523L31.3637 33.8125V41.4921C31.3637 43.3453 29.8575 44.8479 28 44.8479C26.1425 44.8479 24.6363 43.3453 24.6363 41.4921V33.8125L17.9693 37.6523C16.3606 38.5789 14.3026 38.0291 13.3739 36.4239C12.9291 35.6522 12.8091 34.7309 13.0412 33.8683C13.2733 33.0056 13.8378 32.2744 14.6072 31.8398L21.2712 28L14.6072 24.1602C13.8381 23.7253 13.2739 22.994 13.0421 22.1314C12.8103 21.2687 12.9305 20.3476 13.3754 19.5761C14.3026 17.9709 16.3606 17.4211 17.9693 18.3477L24.6363 22.1875V14.5079C24.6363 12.6547 26.1425 11.1521 28 11.1521C29.8575 11.1521 31.3637 12.6547 31.3637 14.5064V22.1875L38.0307 18.3477C39.6394 17.4211 41.6974 17.9709 42.6261 19.5761C43.0711 20.3476 43.1912 21.2687 42.9594 22.1314C42.7276 22.994 42.1635 23.7253 41.3943 24.1602L34.7288 28ZM25.7128 14.5079C25.7128 13.2474 26.7381 12.2258 28 12.2258C29.2635 12.2258 30.2872 13.2474 30.2872 14.5079V22.8063L28 24.125L25.7128 22.8078V14.5079ZM14.0806 21.8508C14.238 22.4372 14.6213 22.9345 15.1439 23.2305L22.3477 27.3797L24.6364 26.0625V23.4281L17.4311 19.2774C16.339 18.6479 14.952 19.0192 14.3072 20.1137C14.0048 20.6382 13.9231 21.2643 14.0806 21.8508ZM17.4311 36.7226C16.339 37.3521 14.952 36.9808 14.3072 35.8863C14.0048 35.3618 13.9231 34.7356 14.0806 34.1492C14.238 33.5628 14.6213 33.0655 15.1439 32.7695L22.3477 28.6188L24.6364 29.9375V32.5719L17.4311 36.7226ZM38.5689 36.7226C39.6606 37.3524 41.0475 36.9818 41.6929 35.8879V35.8863C42.3246 34.7958 41.9507 33.399 40.8561 32.7695L33.6523 28.6203L31.3637 29.9375V32.5719L38.5689 36.7226ZM28 43.7742C29.2635 43.7742 30.2872 42.7526 30.2872 41.4921V33.1922L28 31.875L25.7128 33.1922V41.4921C25.7128 42.7526 26.7366 43.7742 28 43.7742ZM32.5759 28L31.3637 27.3031V28.6969L32.5759 28ZM29.0765 24.7453L30.2872 24.0469V25.4422L29.0765 24.7453ZM26.9235 24.7453L25.7128 24.0484V25.4422L26.9235 24.7453ZM24.6363 28.6969L23.4242 28L24.6363 27.3031V28.6969ZM25.7128 31.9531L26.9235 31.2547L25.7128 30.5578V31.9531ZM30.2872 30.5578V31.9516L29.0765 31.2547L30.2872 30.5578ZM25.7128 29.3172L28 30.6344L30.2872 29.3172V26.6828L28 25.3656L25.7128 26.6828V29.3172ZM38.5689 19.2774C39.661 18.6479 41.048 19.0192 41.6929 20.1137C42.3261 21.2042 41.9492 22.601 40.8561 23.2305L33.6523 27.3812L31.3637 26.0625V23.4281L38.5689 19.2774Z" fill="black"/>
<path fill-rule="evenodd" clip-rule="evenodd" d="M34.7288 28L41.3943 31.8398C42.1635 32.2747 42.7276 33.006 42.9594 33.8686C43.1912 34.7313 43.0711 35.6524 42.6261 36.4239C41.6974 38.0291 39.6394 38.5789 38.0307 37.6523L31.3637 33.8125V41.4921C31.3637 43.3453 29.8575 44.8479 28 44.8479C26.1425 44.8479 24.6363 43.3453 24.6363 41.4921V33.8125L17.9693 37.6523C16.3606 38.5789 14.3026 38.0291 13.3739 36.4239C12.9291 35.6522 12.8091 34.7309 13.0412 33.8683C13.2733 33.0056 13.8378 32.2744 14.6072 31.8398L21.2712 28L14.6072 24.1602C13.8381 23.7253 13.2739 22.994 13.0421 22.1314C12.8103 21.2687 12.9305 20.3476 13.3754 19.5761C14.3026 17.9709 16.3606 17.4211 17.9693 18.3477L24.6363 22.1875V14.5079C24.6363 12.6547 26.1425 11.1521 28 11.1521C29.8575 11.1521 31.3637 12.6547 31.3637 14.5064V22.1875L38.0307 18.3477C39.6394 17.4211 41.6974 17.9709 42.6261 19.5761C43.0711 20.3476 43.1912 21.2687 42.9594 22.1314C42.7276 22.994 42.1635 23.7253 41.3943 24.1602L34.7288 28ZM25.7128 14.5079C25.7128 13.2474 26.7381 12.2258 28 12.2258C29.2635 12.2258 30.2872 13.2474 30.2872 14.5079V22.8063L28 24.125L25.7128 22.8078V14.5079ZM14.0806 21.8508C14.238 22.4372 14.6213 22.9345 15.1439 23.2305L22.3477 27.3797L24.6364 26.0625V23.4281L17.4311 19.2774C16.339 18.6479 14.952 19.0192 14.3072 20.1137C14.0048 20.6382 13.9231 21.2643 14.0806 21.8508ZM17.4311 36.7226C16.339 37.3521 14.952 36.9808 14.3072 35.8863C14.0048 35.3618 13.9231 34.7356 14.0806 34.1492C14.238 33.5628 14.6213 33.0655 15.1439 32.7695L22.3477 28.6188L24.6364 29.9375V32.5719L17.4311 36.7226ZM38.5689 36.7226C39.6606 37.3524 41.0475 36.9818 41.6929 35.8879V35.8863C42.3246 34.7958 41.9507 33.399 40.8561 32.7695L33.6523 28.6203L31.3637 29.9375V32.5719L38.5689 36.7226ZM28 43.7742C29.2635 43.7742 30.2872 42.7526 30.2872 41.4921V33.1922L28 31.875L25.7128 33.1922V41.4921C25.7128 42.7526 26.7366 43.7742 28 43.7742ZM32.5759 28L31.3637 27.3031V28.6969L32.5759 28ZM29.0765 24.7453L30.2872 24.0469V25.4422L29.0765 24.7453ZM26.9235 24.7453L25.7128 24.0484V25.4422L26.9235 24.7453ZM24.6363 28.6969L23.4242 28L24.6363 27.3031V28.6969ZM25.7128 31.9531L26.9235 31.2547L25.7128 30.5578V31.9531ZM30.2872 30.5578V31.9516L29.0765 31.2547L30.2872 30.5578ZM25.7128 29.3172L28 30.6344L30.2872 29.3172V26.6828L28 25.3656L25.7128 26.6828V29.3172ZM38.5689 19.2774C39.661 18.6479 41.048 19.0192 41.6929 20.1137C42.3261 21.2042 41.9492 22.601 40.8561 23.2305L33.6523 27.3812L31.3637 26.0625V23.4281L38.5689 19.2774Z" fill="white"/>
</svg>
