<svg viewBox="0 0 56 56" fill="none" xmlns="http://www.w3.org/2000/svg">
<path opacity="0.2" d="M28 56C43.464 56 56 43.464 56 28C56 12.536 43.464 0 28 0C12.536 0 0 12.536 0 28C0 43.464 12.536 56 28 56Z" fill="#00CBA0"/>
<path fill-rule="evenodd" clip-rule="evenodd" d="M27.9873 55.9237C43.4161 55.9237 55.9236 43.4161 55.9236 27.9873C55.9236 12.5585 43.4161 0.0509338 27.9873 0.0509338C12.5584 0.0509338 0.0509109 12.5585 0.0509109 27.9873C0.0509109 43.4161 12.5584 55.9237 27.9873 55.9237Z" fill="#002352"/>
<path fill-rule="evenodd" clip-rule="evenodd" d="M16.6231 22.7983H30.9923C30.9923 22.7983 35.952 22.7524 32.522 29.0979C32.522 29.0979 30.0189 34.0639 23.8077 33.9719L27.159 25.4938C27.24 25.2884 27.2146 25.0566 27.091 24.8733C26.9674 24.69 26.7611 24.5782 26.5388 24.5742L22.1391 24.4997L16.5768 37.9264C16.5768 37.9264 18.4309 38.1103 19.4506 38.0183L18.8944 39.3978H21.5226C21.6702 39.3976 21.8024 39.3068 21.8545 39.1697L22.3245 37.9264L23.4369 37.8344L22.788 39.3978H25.3466C25.537 39.3977 25.708 39.2821 25.7777 39.1063L26.4971 37.2826C26.4971 37.2826 34.2843 35.9951 37.807 29.7416C37.807 29.7416 42.535 22.4765 36.9727 19.9015C35.8886 19.4085 34.7295 19.0977 33.5426 18.9818L34.1971 17.3945C34.2373 17.2969 34.2258 17.1858 34.1664 17.0984C34.1071 17.0109 34.0077 16.9585 33.9014 16.9586H31.5022L30.7606 18.8899H29.7408L30.3165 17.3899C30.354 17.2921 30.3406 17.1821 30.2806 17.096C30.2206 17.0098 30.1217 16.9585 30.0162 16.9586H27.6058L26.8642 18.8899H19.3746C18.9637 18.8887 18.586 19.1136 18.3938 19.4738L16.6231 22.7983Z" fill="white"/>
</svg>
