<svg width="100%" height="100%" viewBox="0 0 54 54" fill="none" xmlns="http://www.w3.org/2000/svg">
<path opacity="0.2" d="M27 54C41.9117 54 54 41.9117 54 27C54 12.0883 41.9117 0 27 0C12.0883 0 0 12.0883 0 27C0 41.9117 12.0883 54 27 54Z" fill="#32A4BE"/>
<path opacity="0.2" d="M27 54C41.9117 54 54 41.9117 54 27C54 12.0883 41.9117 0 27 0C12.0883 0 0 12.0883 0 27C0 41.9117 12.0883 54 27 54Z" fill="#C2A633"/>
<mask id="mask0" mask-type="alpha" maskUnits="userSpaceOnUse" x="0" y="0" width="54" height="54">
<path d="M27 54C41.9117 54 54 41.9117 54 27C54 12.0883 41.9117 0 27 0C12.0883 0 0 12.0883 0 27C0 41.9117 12.0883 54 27 54Z" fill="white"/>
</mask>
<g mask="url(#mask0)">
<path fill-rule="evenodd" clip-rule="evenodd" d="M27.4467 16.1703H20.0746V25.9615H15.5769V29.2253H20.0746V39.0165H27.4467C31.3379 39.0165 32.1763 38.609 33.8532 37.7939C33.9834 37.7307 34.1187 37.6649 34.2608 37.5967C36.2334 36.6503 37.7665 35.3176 38.8599 33.5987C39.9533 31.8798 40.5 29.878 40.5 27.5934C40.5 25.3088 39.9533 23.307 38.8599 21.5881C37.7665 19.8692 36.2334 18.5365 34.2608 17.59C32.2881 16.6436 30.0168 16.1703 27.4467 16.1703ZM25.5529 29.2253V34.6757H27.1761C29.5433 34.6757 31.4314 34.0393 32.8405 32.7664C34.2495 31.4936 34.954 29.7692 34.954 27.5934C34.954 25.4176 34.2495 23.6932 32.8405 22.4204C31.4314 21.1475 29.5433 20.5111 27.1761 20.5111H25.5529V25.9615H30.7945V29.2253H25.5529Z" fill="#C2A633"/>
</g>
</svg>
