<svg width="100%" height="100%" viewBox="0 0 54 54" fill="none" xmlns="http://www.w3.org/2000/svg">
<path opacity="0.2" d="M53.8535 27.0005C53.8535 41.8337 41.8291 53.8584 26.9961 53.8584C12.1629 53.8584 0.138344 41.8337 0.138344 27.0005C0.138344 12.1675 12.1629 0.142914 26.9961 0.142914C41.829 0.142914 53.8535 12.1675 53.8535 27.0005" fill="#505050"/>
<g opacity="0.8">
<path d="M26.9102 14.5385L26.7443 15.1023V31.4639L26.9102 31.6295L34.5051 27.1402L26.9102 14.5385Z" fill="white"/>
<path d="M26.9103 14.5385L19.3154 27.1402L26.9103 31.6295V23.6881V14.5385Z" fill="white"/>
<path d="M26.9102 34.1005L26.8167 34.2145V40.0428L26.9102 40.3159L34.5096 29.6135L26.9102 34.1005Z" fill="white"/>
<path d="M26.9103 40.3159V34.1005L19.3154 29.6135L26.9103 40.3159Z" fill="white"/>
<path d="M26.9102 31.6295L34.5049 27.1402L26.9102 23.6882V31.6295Z" fill="white"/>
<path d="M19.3154 27.1402L26.9101 31.6295V23.6881L19.3154 27.1402Z" fill="white"/>
</g>
</svg>
