<svg  viewBox="0 0 56 56" fill="none" xmlns="http://www.w3.org/2000/svg">
<path opacity="0.2" d="M28 56C43.464 56 56 43.464 56 28C56 12.536 43.464 0 28 0C12.536 0 0 12.536 0 28C0 43.464 12.536 56 28 56Z" fill="#415CA8"/>
<path fill-rule="evenodd" clip-rule="evenodd" d="M18.7925 23.3988V22.6769L11.5031 18.6359C11.0249 19.4246 10.7707 20.3343 10.7692 21.2628V27.8263L10.7871 27.8364L18.7925 23.3988Z" fill="#3377B5"/>
<path fill-rule="evenodd" clip-rule="evenodd" d="M10.7873 27.8366L18.7925 32.2741V23.399L10.7873 27.8366" fill="#4F6CB0"/>
<path fill-rule="evenodd" clip-rule="evenodd" d="M44.544 18.7208L37.4076 22.6769V23.3988L45.2308 27.7356V21.2628C45.2308 20.3577 44.986 19.4865 44.5442 18.7206" fill="#504CA1"/>
<path fill-rule="evenodd" clip-rule="evenodd" d="M18.7925 32.6267V32.2743L10.7871 27.8367L10.7692 27.8468V34.3062C10.7692 35.2756 11.0496 36.2065 11.5526 37.0096L18.8066 32.9883L18.7925 32.6267Z" fill="#3B9CC7"/>
<path fill-rule="evenodd" clip-rule="evenodd" d="M36.6713 22.2023V13.4876L28.8112 17.8449L36.6713 22.2023" fill="#5465AD"/>
<path fill-rule="evenodd" clip-rule="evenodd" d="M37.4076 22.6104V22.6768L44.544 18.7206C44.071 17.9007 43.3722 17.2026 42.4974 16.7172L36.6713 13.4876V22.2023" fill="#513D9A"/>
<path fill-rule="evenodd" clip-rule="evenodd" d="M28.0957 36.5833L35.9072 32.2529V32.1669L28.0957 27.8366V36.5833" fill="#214688"/>
<path fill-rule="evenodd" clip-rule="evenodd" d="M19.4285 33.3598V42.1367L19.5226 42.1888L27.4392 37.8004L19.4285 33.3598" fill="#4395C4"/>
<path fill-rule="evenodd" clip-rule="evenodd" d="M18.8077 33.0154L18.8068 32.9883L11.5527 37.0094C12.0223 37.7593 12.6857 38.3994 13.5022 38.8515L19.4292 42.1367V33.3598L18.8077 33.0154Z" fill="#54A4CB"/>
<path fill-rule="evenodd" clip-rule="evenodd" d="M28.1502 17.4787L28.8108 17.8445L36.6707 13.4871L30.7324 10.195C29.9225 9.74897 29.0197 9.50897 28.1002 9.49522V17.506L28.1502 17.4787Z" fill="#7F6FB3"/>
<path fill-rule="evenodd" clip-rule="evenodd" d="M27.4391 17.8727L28.0998 17.5069V9.49521C27.2441 9.47899 26.3956 9.65791 25.6157 10.019L19.4437 13.4406L27.4391 17.8727Z" fill="#5054A4"/>
<path fill-rule="evenodd" clip-rule="evenodd" d="M19.4437 13.4406L19.4284 13.4488V22.3133L27.439 17.8727L19.4437 13.4406" fill="#50479E"/>
<path fill-rule="evenodd" clip-rule="evenodd" d="M18.7925 22.6683L19.1318 22.4774L19.4275 22.3128V13.449L13.1681 16.9196C12.4935 17.3554 11.9242 17.9423 11.5031 18.6361L18.7925 22.6769V22.6683Z" fill="#5057A6"/>
<path fill-rule="evenodd" clip-rule="evenodd" d="M28.1502 38.1946L28.1002 38.167V46.074C29.0199 46.0601 29.9228 45.8199 30.733 45.3737L36.5775 42.1339L28.8112 37.8288L28.1502 38.1946Z" fill="#2C7AB6"/>
<path fill-rule="evenodd" clip-rule="evenodd" d="M27.4392 37.8003L19.5226 42.1897L25.2665 45.3741C26.1366 45.8528 27.1125 46.0939 28.1 46.074V38.1668" fill="#4FA2CA"/>
<path fill-rule="evenodd" clip-rule="evenodd" d="M28.8112 37.8281L36.5775 42.1332L36.6713 42.0811V33.471L28.8112 37.8281" fill="#4D8DC0"/>
<path fill-rule="evenodd" clip-rule="evenodd" d="M37.4076 33.0626L36.6714 33.4708V42.0811L42.4974 38.8514C43.3441 38.3821 44.0276 37.7134 44.4999 36.9277L37.4076 32.9955" fill="#4488BE"/>
<path fill-rule="evenodd" clip-rule="evenodd" d="M37.4076 32.996L44.4999 36.9282C44.9763 36.1406 45.2293 35.2327 45.2308 34.3061V27.9375L37.4076 32.2743" fill="#6687BE"/>
<path fill-rule="evenodd" clip-rule="evenodd" d="M37.4076 32.2743L45.2308 27.9375V27.7356L37.4076 23.3986V32.2743" fill="#415CA8"/>
<path fill-rule="evenodd" clip-rule="evenodd" d="M35.9071 32.1669V23.5064L28.0955 27.8366L35.9071 32.1669" fill="#5D62AC"/>
</svg>
