<svg  viewBox="0 0 56 56" fill="none" xmlns="http://www.w3.org/2000/svg">
<path opacity="0.2" d="M28 56C43.464 56 56 43.464 56 28C56 12.536 43.464 0 28 0C12.536 0 0 12.536 0 28C0 43.464 12.536 56 28 56Z" fill="#FEDB31"/>
<mask id="mask0" mask-type="alpha" maskUnits="userSpaceOnUse" x="0" y="0" >
<path d="M28 56C43.464 56 56 43.464 56 28C56 12.536 43.464 0 28 0C12.536 0 0 12.536 0 28C0 43.464 12.536 56 28 56Z" fill="white"/>
</mask>
<g mask="url(#mask0)">
<path fill-rule="evenodd" clip-rule="evenodd" d="M36.2242 17.9482L38.0518 19.7758L30.7414 27.0862L28.9138 25.2586L36.2242 17.9482ZM25.2586 28.9138L27.0862 30.7414L19.7758 38.0518L17.9482 36.2242L25.2586 28.9138ZM25.2586 27.0862L27.0862 25.2586L19.7758 17.9482L17.9482 19.7758L25.2586 27.0862ZM38.0518 36.2242L36.2242 38.0518L28.9138 30.7414L30.7414 28.9138L38.0518 36.2242ZM28 29.8276L29.8276 28L28 26.1724L26.1724 28L28 29.8276Z" fill="#FEDB31"/>
</g>
</svg>
