<svg width="100%" height="100%" viewBox="0 0 54 54" fill="none" xmlns="http://www.w3.org/2000/svg">
<path opacity="0.2" d="M27 54C41.9117 54 54 41.9117 54 27C54 12.0883 41.9117 0 27 0C12.0883 0 0 12.0883 0 27C0 41.9117 12.0883 54 27 54Z" fill="#3D6FC0"/>
<path fill-rule="evenodd" clip-rule="evenodd" d="M36.3395 21.1022C37.2552 21.9219 38.1575 22.7297 38.9558 23.4831C48.0436 32.0971 40.1273 43.5306 26.7099 43.5306C13.2924 43.5306 5.39211 32.0971 14.494 23.4848C15.3116 22.7093 16.2409 21.8773 17.1826 21.0341L17.1826 21.0341C19.9844 18.5254 22.8963 15.9182 23.3054 14.4104C23.8521 12.3957 22.4003 10.5577 22.4003 10.5577C24.6752 10.5213 25.9849 11.5165 26.7179 12.6467C27.4649 11.5165 28.7605 10.5213 31.0455 10.5577C31.0455 10.5577 29.6016 12.4113 30.1443 14.4121C30.5543 15.9236 33.5107 18.57 36.3395 21.1022ZM13.791 33.3138C15.1568 38.385 21.3108 40.8963 26.7179 40.8963C32.1389 40.8963 38.2789 38.385 39.6587 33.3138C40.988 28.3523 36.4584 24.8053 32.1166 21.4054C30.0744 19.8063 28.0738 18.2397 26.7439 16.5738L26.7159 16.5496L26.6878 16.5738C26.1736 17.1865 25.6108 17.7677 25.0036 18.3132C26.5457 19.6563 28.0977 20.9977 29.6517 22.3148C30.2321 22.8036 30.8872 23.3051 31.5659 23.8247C34.7367 26.252 38.4212 29.0727 37.4018 32.8292C36.2943 36.919 31.0315 38.8332 26.7179 38.8332C22.4043 38.8332 17.1414 36.919 16.034 32.8292C15.0124 29.0831 18.6769 26.2735 21.843 23.846L21.8431 23.846C22.5314 23.3183 23.1961 22.8086 23.7841 22.3113C23.9097 22.2028 24.0424 22.0913 24.1788 21.9768C24.3228 21.8559 24.471 21.7315 24.6191 21.6034C24.3749 21.4123 24.138 21.214 23.9028 21.0171L23.9027 21.017L23.9027 21.017C23.7908 20.9233 23.6794 20.8301 23.5678 20.7381L22.9209 20.1773C22.1577 20.8632 21.2929 21.5519 20.4049 22.2591C16.6751 25.2295 12.5359 28.5259 13.791 33.3138ZM30.8312 29.449C30.5548 29.1626 30.2565 28.8925 29.9381 28.6407L31.6123 27.1246C34.0294 29.2621 36.3304 31.9344 32.7778 34.5444C31.2398 35.6763 28.9248 36.1852 26.6959 36.1852C24.467 36.1852 22.166 35.6763 20.6259 34.5444C17.0613 31.9223 19.4044 29.2379 21.8275 27.0882L23.4957 28.6165C23.1557 28.8692 22.8427 29.1478 22.5605 29.449C19.929 32.2702 23.7821 34.0234 26.6878 34.0234C29.5936 34.0234 33.4627 32.2702 30.8312 29.449ZM24.7613 31.2767C25.975 31.8832 27.4698 31.8878 28.6884 31.2888L27.8454 27.225C28.5898 26.8772 29.0518 26.2031 29.0469 25.4717C29.0476 24.4923 28.2319 23.6549 27.1151 23.4885C25.9983 23.3222 24.9053 23.8753 24.5266 24.7985C24.1479 25.7216 24.5938 26.7462 25.5824 27.225L24.7613 31.2767Z" fill="#3D6FC0"/>
</svg>
