<svg  viewBox="0 0 56 56" fill="none" xmlns="http://www.w3.org/2000/svg">
<path opacity="0.2" d="M28 56C43.464 56 56 43.464 56 28C56 12.536 43.464 0 28 0C12.536 0 0 12.536 0 28C0 43.464 12.536 56 28 56Z" fill="#BB1B21"/>
<path fill-rule="evenodd" clip-rule="evenodd" d="M25.6271 9.87345C26.4266 9.51483 27.1198 8.91003 27.9527 8.64446C28.1753 9.91997 28.0335 11.2187 28.0709 12.5039C28.0551 14.425 28.128 16.3479 28.0236 18.265C26.6314 18.99 25.2982 19.8236 23.9375 20.6048C22.4665 21.4325 20.958 22.2001 19.5559 23.1403C19.6977 23.2605 19.8454 23.3768 19.997 23.4853C19.8907 23.5144 19.6761 23.5726 19.5697 23.6016C19.3472 24.1987 19.5185 24.8713 19.4673 25.4955C19.4023 27.9399 19.5422 30.3901 19.3846 32.8326C17.4075 33.8076 15.5387 34.9862 13.6069 36.0485C12.701 36.6165 11.7223 37.0681 10.8362 37.669L10.8342 37.671C10.8559 31.2062 10.8027 24.7279 10.8638 18.2709C15.779 15.464 20.7138 12.6862 25.6271 9.87345Z" fill="#D11D23"/>
<path fill-rule="evenodd" clip-rule="evenodd" d="M36.2964 23.0337C36.4342 23.2217 36.3417 23.5125 36.3791 23.7354C36.3633 26.7574 36.3436 29.7814 36.4047 32.8054C34.3429 34.2166 32.0743 35.3061 29.922 36.5777C29.2386 36.9382 28.6183 37.4287 27.8858 37.6884C27.7991 37.6555 27.6258 37.5876 27.5392 37.5527C27.7893 37.5023 27.8996 37.357 27.872 37.1127C27.9271 34.079 27.9015 31.0434 27.9074 28.0078C28.9748 27.3603 30.0795 26.7768 31.1705 26.172C32.6572 25.3036 34.1243 24.4061 35.6465 23.6016C35.9084 23.4698 36.1113 23.2546 36.2964 23.0337Z" fill="#D11D23"/>
<path fill-rule="evenodd" clip-rule="evenodd" d="M27.9527 8.64446C28.7897 8.95462 29.475 9.57105 30.304 9.90252C35.1936 12.7327 40.1246 15.4911 45.026 18.2864C45.1087 19.1684 45.0594 20.0698 45.0535 20.9556C44.9492 21.289 44.9275 21.6399 44.9354 21.9869C44.9275 26.9707 44.963 31.9545 44.9551 36.9363C44.9354 37.0875 44.896 37.3899 44.8763 37.5392C42.0229 36.0175 39.2679 34.3116 36.4047 32.8054C36.3436 29.7814 36.3633 26.7574 36.3791 23.7354C36.3417 23.5125 36.4342 23.2217 36.2964 23.0337C34.9081 22.3591 33.634 21.4829 32.2535 20.7947C30.8711 19.9069 29.3588 19.2246 28.0236 18.265C28.128 16.3479 28.0551 14.425 28.0709 12.5039C28.0335 11.2187 28.1753 9.91997 27.9527 8.64446Z" fill="#BB1B21"/>
<path fill-rule="evenodd" clip-rule="evenodd" d="M19.5697 23.6016C19.6761 23.5726 19.8907 23.5144 19.997 23.4853C21.6906 24.41 23.3408 25.4063 25.0107 26.3678C26.0209 26.8369 26.9425 27.4611 27.9074 28.0078C27.9015 31.0434 27.9271 34.079 27.872 37.1127C27.8996 37.357 27.7893 37.5023 27.5392 37.5527C24.8512 35.9283 22.0588 34.4783 19.3846 32.8326C19.5422 30.3901 19.4023 27.9399 19.4673 25.4955C19.5185 24.8713 19.3472 24.1987 19.5697 23.6016Z" fill="#BB1B21"/>
<path fill-rule="evenodd" clip-rule="evenodd" d="M23.9375 20.6048C25.2982 19.8236 26.6314 18.99 28.0236 18.265C29.3588 19.2246 30.8711 19.9069 32.2535 20.7947C33.634 21.4829 34.9081 22.3591 36.2964 23.0337C36.1113 23.2546 35.9084 23.4698 35.6465 23.6016C34.1243 24.4061 32.6572 25.3036 31.1705 26.172C30.0795 26.7768 28.9748 27.3603 27.9074 28.0078C26.9425 27.4611 26.0209 26.8369 25.0107 26.3678C23.3408 25.4063 21.6906 24.41 19.997 23.4853C19.8454 23.3768 19.6977 23.2605 19.5559 23.1403C20.958 22.2001 22.4665 21.4325 23.9375 20.6048Z" fill="#ED4340"/>
<path fill-rule="evenodd" clip-rule="evenodd" d="M44.9354 21.9869C44.9275 21.6399 44.9492 21.289 45.0535 20.9556C45.0575 26.4744 45.0653 31.9952 45.0634 37.5178C44.9708 37.7524 44.7345 37.828 44.5376 37.9521C39.0809 41.104 33.5788 44.1648 28.1181 47.3148C27.1946 47.2586 26.5014 46.4154 25.6251 46.1246C20.7237 43.2634 15.7258 40.538 10.8362 37.669C11.7223 37.0681 12.701 36.6165 13.6069 36.0485C15.5387 34.9862 17.4075 33.8076 19.3846 32.8326C22.0588 34.4783 24.8512 35.9283 27.5392 37.5527C27.6258 37.5876 27.7991 37.6555 27.8858 37.6884C28.6183 37.4287 29.2386 36.9382 29.922 36.5777C32.0743 35.3061 34.3429 34.2166 36.4047 32.8054C39.2679 34.3116 42.0229 36.0175 44.8763 37.5392C44.896 37.3899 44.9354 37.0875 44.9551 36.9363C44.9629 31.9545 44.9275 26.9707 44.9354 21.9869Z" fill="#ED4340"/>
</svg>
