<svg  viewBox="0 0 56 56" fill="none" xmlns="http://www.w3.org/2000/svg">
<path opacity="0.2" d="M28 56C43.464 56 56 43.464 56 28C56 12.536 43.464 0 28 0C12.536 0 0 12.536 0 28C0 43.464 12.536 56 28 56Z" fill="#6DDFFF"/>
<mask id="mask0" mask-type="alpha" maskUnits="userSpaceOnUse" x="0" y="0" >
<path d="M28 56C43.464 56 56 43.464 56 28C56 12.536 43.464 0 28 0C12.536 0 0 12.536 0 28C0 43.464 12.536 56 28 56Z" fill="white"/>
</mask>
<g mask="url(#mask0)">
<path fill-rule="evenodd" clip-rule="evenodd" d="M35.4421 27.051C33.8863 28.9338 32.3712 30.79 32.3712 30.79C32.3712 30.79 33.7032 32.9083 33.1601 35.9026C32.6174 38.8963 30.8974 40.9232 30.8974 40.9232C30.8974 40.9232 30.7544 39.1625 30.3647 38.1799C29.9762 37.197 28.4408 35.2522 28.4408 35.2522C28.4408 35.2522 27.7451 36.0988 26.9398 36.1397C26.6355 36.1547 26.1464 35.9174 25.5754 35.5576C25.5077 35.6595 25.4382 35.7611 25.3666 35.8617C23.1253 39.0284 20.0027 40.6715 18.3927 39.5324C16.7825 38.3921 17.294 34.9017 19.536 31.735C19.6307 31.6004 19.7274 31.4705 19.8256 31.3423C19.1969 30.8126 18.7402 30.3259 18.7101 29.9843C18.6418 29.2063 18.9964 28.6745 18.9964 28.6745C18.9964 28.6745 17.4954 28.0471 15.994 28.0058C14.4931 27.9644 12.9231 28.4148 12.9231 28.4148C12.9231 28.4148 14.3698 25.9582 16.7311 24.6481C19.0922 23.3379 22.081 23.3925 22.081 23.3925C22.081 23.3925 23.4455 21.0317 24.101 19.9262L24.1761 19.7988C24.8565 18.6441 26.2087 16.349 29.5736 14.5354C33.0671 12.6522 37.2435 12.9387 37.2435 12.9387C37.2435 12.9387 38.3624 16.1045 38.3624 19.3803C38.3624 22.6558 36.9979 25.1671 35.4421 27.051ZM30.9374 18.3279C29.0905 18.3279 27.5933 19.8247 27.5933 21.6716C27.5933 23.5182 29.0905 25.0153 30.9374 25.0153C32.7836 25.0153 34.2809 23.5182 34.2809 21.6716C34.2811 19.8247 32.7838 18.3279 30.9374 18.3279ZM19.9911 37.2279C18.8635 36.3954 19.1537 34.091 20.6381 32.0813C20.6409 32.0773 20.6438 32.0737 20.6467 32.07C20.65 32.0659 20.6533 32.0618 20.6564 32.0573C21.0589 32.3583 21.4777 32.6578 21.8712 32.9392C22.0643 33.0773 22.2513 33.211 22.4273 33.3384C22.7123 33.5453 23.02 33.7761 23.3368 34.0138C23.8025 34.3632 24.288 34.7273 24.7502 35.0523C24.7454 35.059 24.7408 35.0658 24.7363 35.0725C24.7309 35.0805 24.7256 35.0884 24.7198 35.0962C23.2347 37.1064 21.1181 38.0601 19.9911 37.2279Z" fill="#6DDFFF"/>
<path fill-rule="evenodd" clip-rule="evenodd" d="M7.53847 48.4615L12.0686 42.4498C12.3098 42.1298 12.7647 42.0659 13.0847 42.307V42.307C13.4047 42.5482 13.4686 43.0031 13.2275 43.3231L8.69735 49.3348L7.53847 48.4615Z" fill="#6DDFFF"/>
<path fill-rule="evenodd" clip-rule="evenodd" d="M9.93875 50.3368L12.8806 46.4328C13.1218 46.1128 13.5767 46.0489 13.8967 46.29V46.29C14.2167 46.5312 14.2806 46.9861 14.0395 47.3061L11.0976 51.2101L9.93875 50.3368Z" fill="#6DDFFF"/>
</g>
</svg>
