<svg  viewBox="0 0 56 56" fill="none" xmlns="http://www.w3.org/2000/svg">
<path opacity="0.2" d="M28 56C43.464 56 56 43.464 56 28C56 12.536 43.464 0 28 0C12.536 0 0 12.536 0 28C0 43.464 12.536 56 28 56Z" fill="#1EB1C1"/>
<path fill-rule="evenodd" clip-rule="evenodd" d="M28.724 42.9077C28.8815 43.0103 29.0653 43.0648 29.253 43.0646L29.2533 43.0636C29.4376 43.0621 29.6179 43.0095 29.7743 42.9116L44.1297 33.6498C44.8136 33.2093 45.2262 32.4486 45.2237 31.6327V28.8655C45.232 28.5768 45.1178 28.2981 44.9095 28.0989C44.5831 27.8034 44.1003 27.7636 43.7302 28.0016L29.1047 37.3706C29.0954 37.3771 29.0831 37.3771 29.0739 37.3706L14.7347 28.219C14.3827 27.9945 14.17 27.6043 14.1716 27.1856V24.5776C14.1711 24.5725 14.1722 24.5673 14.1748 24.5629C14.1831 24.5496 14.2004 24.5453 14.2139 24.5532L28.749 33.7419C29.0679 33.9413 29.4719 33.9413 29.7908 33.7419L44.7744 24.2422C45.0578 24.0617 45.2296 23.7481 45.2296 23.4111C45.2296 23.074 45.0578 22.7605 44.7744 22.5799L29.9177 13.077C29.6119 12.8815 29.2233 12.8721 28.9084 13.0525L28.8923 13.0622L13.5245 23.1189L13.2462 23.3102L13.1977 23.3494C13.021 23.5325 12.9224 23.7777 12.9231 24.0326V27.1872C12.9228 28.0369 13.3583 28.8268 14.0755 29.2777L28.5624 38.5323C28.8828 38.7366 29.292 38.7366 29.6124 38.5323L43.9483 29.3645C43.9524 29.3626 43.9569 29.3615 43.9614 29.3612C43.9773 29.3609 43.9908 29.373 43.9923 29.389V31.6436C43.9931 32.0311 43.7966 32.3921 43.4713 32.6006L29.2771 41.7587C29.2678 41.7652 29.2555 41.7652 29.2462 41.7587L14.269 32.0726C14.2578 32.0628 14.2411 32.0628 14.2299 32.0726L13.5854 33.0794C13.5756 33.0907 13.5756 33.1075 13.5854 33.1187L28.724 42.9077ZM29.2528 32.5777L15.1172 23.6338C15.1153 23.6319 15.1136 23.6297 15.1124 23.6273C15.1072 23.6211 15.1048 23.613 15.1057 23.605C15.1066 23.5969 15.1108 23.5896 15.1172 23.5848L29.3853 14.2403C29.3946 14.2339 29.4069 14.2339 29.4161 14.2403L43.7042 23.3838C43.7077 23.3857 43.7105 23.3885 43.7123 23.3919C43.7167 23.3981 43.7184 23.4059 43.7168 23.4133C43.7153 23.4208 43.7107 23.4273 43.7042 23.4312L29.2837 32.5777C29.2744 32.5842 29.2621 32.5842 29.2528 32.5777Z" fill="url(#paint0_linear)"/>
<defs>
<linearGradient id="paint0_linear" x1="12.9231" y1="26.6966" x2="45.2308" y2="26.6966" gradientUnits="userSpaceOnUse">
<stop stop-color="white"/>
<stop stop-color="#21BBC0"/>
<stop offset="0.34" stop-color="#20B9C0"/>
<stop offset="1" stop-color="#1387C9"/>
</linearGradient>
</defs>
</svg>
