<svg  viewBox="0 0 56 56" fill="none" xmlns="http://www.w3.org/2000/svg">
<path opacity="0.2" d="M28 56C43.464 56 56 43.464 56 28C56 12.536 43.464 0 28 0C12.536 0 0 12.536 0 28C0 43.464 12.536 56 28 56Z" fill="#6CB0FD"/>
<path fill-rule="evenodd" clip-rule="evenodd" d="M26.7228 8.61539H29.512C32.0189 8.78202 34.4862 9.58547 36.5955 11.0217C39.2596 12.7834 41.2838 15.3762 43.0523 18.0662C42.0166 17.36 41.0831 16.505 40.0284 15.8265C36.4895 13.3884 32.2499 11.7597 27.9631 12.216C24.0417 12.6048 20.4308 14.6402 17.4883 17.3064C15.057 19.5045 13.3946 22.6945 13.2791 26.0907C13.0992 30.5662 14.8847 34.8175 17.0225 38.5887C15.8428 38.2673 14.6954 37.7734 13.6975 37.0294C11.6904 35.5713 10.3536 33.2939 9.65491 30.8737C8.62296 27.2691 8.37302 23.2717 9.73633 19.7227C10.9008 16.5407 13.2185 14.0074 15.7311 11.9264C18.8989 9.51207 22.9075 8.87328 26.7228 8.61539Z" fill="#6CB0FD"/>
<path fill-rule="evenodd" clip-rule="evenodd" d="M17.973 23.9899C18.0999 21.9505 19.6828 20.1175 21.6672 20.0123C26.0166 19.9985 30.3678 20.0064 34.7172 20.0084C34.721 21.7918 33.5091 23.48 31.8523 23.9224C30.6651 24.1922 29.44 24.1089 28.2357 24.0692C28.2054 27.1144 28.2604 30.1595 28.2073 33.2027C28.1259 35.6765 26.0128 37.7535 23.6668 37.7813C23.9489 33.2245 24.1704 28.6637 24.4923 24.1109C22.5458 24.097 20.5993 24.1049 18.6528 24.1109C18.4199 24.1069 18.1946 24.0653 17.973 23.9899Z" fill="#6CB0FD"/>
<path fill-rule="evenodd" clip-rule="evenodd" d="M36.8195 17.2462C39.3929 18.7926 41.7959 20.8125 43.2661 23.5322C45.0229 26.6384 45.4199 30.4192 44.8037 33.9198C44.0171 38.0311 41.3014 41.4621 38.0575 43.8473C35.1676 46.1205 31.5492 47.2744 27.9363 47.3846H26.9362C25.4041 47.3112 23.874 47.1391 22.3738 46.797C20.4821 46.3834 18.5643 45.8576 16.9442 44.7191C14.2229 42.8422 12.3462 39.9544 10.9284 36.9622C12.8631 38.6187 14.9009 40.169 17.1465 41.35C20.2836 43.0432 23.9077 43.9749 27.4419 43.3834C31.2701 42.7726 34.6732 40.515 37.3814 37.7373C39.539 35.4642 41.1272 32.4604 41.1722 29.2208C41.3276 24.8098 39.2225 20.7429 36.8195 17.2462Z" fill="#2B2E7C"/>
</svg>
