<svg  viewBox="0 0 56 56" fill="none" xmlns="http://www.w3.org/2000/svg">
<path opacity="0.2" d="M28 56C43.464 56 56 43.464 56 28C56 12.536 43.464 0 28 0C12.536 0 0 12.536 0 28C0 43.464 12.536 56 28 56Z" fill="#FEC001"/>
<path fill-rule="evenodd" clip-rule="evenodd" d="M26.8917 10.8265C28.768 10.7046 30.6677 10.8708 32.4825 11.368C35.7902 12.2468 38.8043 14.1612 41.0363 16.7508C41.2418 17.0302 41.5138 17.256 41.6862 17.5606C42.0818 18.0597 42.4283 18.5932 42.7551 19.1391C42.8265 19.2683 42.9255 19.3785 43.0234 19.488C43.0855 19.8363 43.3489 20.1034 43.4265 20.448C43.2868 20.1274 43.136 19.8105 42.9428 19.5182C42.5065 18.7329 42.0332 17.9563 41.4209 17.2942C41.0302 16.6923 40.5046 16.1975 40.0055 15.688C39.8129 15.4892 39.5945 15.3188 39.392 15.1311C38.7298 14.5009 37.9612 14 37.2129 13.4812C36.5871 14.4419 35.9957 15.4265 35.3292 16.3606C35.2037 16.3471 35.0775 16.3415 34.952 16.3403C33.7028 16.3459 32.4535 16.3422 31.2049 16.3459C31.0492 16.3477 30.8948 16.3686 30.7415 16.3926C30.6425 16.7366 30.5489 17.0849 30.5335 17.4449C30.8769 17.4486 31.2246 17.4382 31.5618 17.5151C31.9754 17.6419 32.3988 17.9219 32.4917 18.3735C32.6265 19.0886 32.2911 19.7705 31.9563 20.3791C31.4603 21.1932 30.9342 21.9883 30.4203 22.7908C30.0702 23.2677 29.7908 23.7914 29.4437 24.2708C28.7655 25.3815 28.0277 26.4542 27.3298 27.5526C27.2978 27.5539 27.2338 27.5563 27.2018 27.5575C27.1914 27.7834 27.0535 27.9631 26.9317 28.1422C25.9723 29.7089 24.9329 31.2234 23.9532 32.7779C23.7655 33.0769 23.5551 33.3606 23.3717 33.6628C23.1212 34.0892 22.8105 34.4763 22.5588 34.9028C22.5428 34.2019 22.5692 33.4997 22.5022 32.8012C22.4954 31.5495 22.4862 30.2979 22.4855 29.0462C22.4751 28.7175 22.4006 28.3932 22.416 28.0634C22.4037 27.1182 22.4412 26.1717 22.384 25.2277C22.3723 24.2794 22.3735 23.3305 22.3532 22.3822C22.3151 22.72 22.3274 23.0597 22.3108 23.3988C22.304 22.4105 22.32 21.4209 22.3052 20.432C22.3138 19.7606 22.2443 19.0695 22.4505 18.4191C22.6548 18.0277 22.9803 17.6843 23.3865 17.5052C24.1403 17.4031 24.9052 17.4634 25.6634 17.4369C25.7298 17.0886 25.8203 16.7459 25.9397 16.4123C25.7662 16.3766 25.5908 16.3459 25.4129 16.3459C22.3563 16.3409 19.2997 16.344 16.2431 16.3446C16.1434 16.3428 16.0154 16.3545 15.984 16.4695C15.8578 16.7815 15.792 17.1163 15.7631 17.4505C16.3145 17.4283 16.8671 17.4455 17.4172 17.4849C17.7963 17.504 18.168 17.6609 18.4517 17.912C18.8738 18.3711 19.0726 19.0117 19.0492 19.6295C19.0302 20.8006 19.0591 21.9711 19.0529 23.1415C19.0529 23.3046 19.0597 23.4683 19.0769 23.6314C19.1329 24.1631 19.0929 24.6985 19.1132 25.2314C19.2203 26.192 19.1446 27.1612 19.1883 28.1249C19.232 28.5489 19.24 28.9766 19.2012 29.4012C19.2812 30.0597 19.1865 30.7274 19.2825 31.3846C19.3335 32.328 19.2523 33.2763 19.3446 34.2179C19.3735 34.7699 19.3132 35.3268 19.4055 35.8751C19.4597 37.0634 19.3871 38.256 19.4714 39.4431C19.5058 39.8099 19.3871 40.2154 19.5871 40.5483C19.2658 41.1243 18.8825 41.6615 18.5175 42.2105C17.1243 41.3083 15.8898 40.1686 14.8351 38.888C13.8277 37.6819 12.9932 36.3323 12.3662 34.8917C11.5182 33.0375 11.0658 31.016 10.9311 28.9859C10.8745 27.5495 10.9292 26.1015 11.2111 24.6892C11.6031 22.6388 12.3705 20.6597 13.4782 18.8899C15.4462 15.7342 18.4474 13.2209 21.9317 11.9059C23.5163 11.2929 25.1963 10.9219 26.8917 10.8265Z" fill="#FDE498"/>
<path fill-rule="evenodd" clip-rule="evenodd" d="M25.9618 9.69417L26.0308 9.6777C26.1727 9.64351 26.3148 9.60926 26.4615 9.60556C27.5883 9.5674 28.7182 9.55571 29.8437 9.62709C30.0253 9.66372 30.2095 9.68468 30.3936 9.70563C30.6518 9.73501 30.9099 9.76438 31.1606 9.83694C31.3848 9.84645 31.6014 9.89675 31.8183 9.94715C31.9384 9.97505 32.0586 10.003 32.1803 10.024C32.282 10.0815 32.3949 10.0982 32.5083 10.115C32.5781 10.1254 32.6481 10.1358 32.7157 10.1557C33.2425 10.304 33.7662 10.4677 34.2812 10.6517C36.4 11.3945 38.3495 12.5779 40.0554 14.0314C40.1757 14.1548 40.3055 14.2678 40.4352 14.3809C40.5689 14.4974 40.7025 14.6138 40.8258 14.7416C41.4351 15.3323 42.0055 15.9656 42.5182 16.6431C42.5914 16.7507 42.6741 16.8517 42.7568 16.9527C42.8845 17.1086 43.0122 17.2645 43.1052 17.4449C43.7551 18.3256 44.2665 19.2979 44.744 20.28C45.3575 21.688 45.8585 23.1576 46.0991 24.6788C46.1168 24.7914 46.1355 24.904 46.1543 25.0166C46.2272 25.4552 46.3003 25.8941 46.3145 26.3397C46.3167 26.4694 46.3326 26.5978 46.3484 26.7261C46.3679 26.8835 46.3873 27.0407 46.3815 27.2C46.3792 27.4162 46.3812 27.6328 46.3831 27.8495V27.8495V27.8497C46.3888 28.4918 46.3946 29.1344 46.2892 29.7699C46.2683 30.2874 46.1803 30.7963 46.0825 31.304C45.9963 31.8745 45.8726 32.4406 45.6972 32.9908C44.9052 35.8369 43.3908 38.4726 41.3557 40.6111C40.2006 41.8566 38.8382 42.8936 37.4012 43.792L37.2965 43.8492C36.4931 44.2878 35.6863 44.7282 34.8246 45.0437C34.7285 45.0788 34.6324 45.1145 34.5364 45.1502L34.5355 45.1505C34.1179 45.3057 33.6996 45.4611 33.2671 45.5686C32.8986 45.7094 32.5143 45.7932 32.1301 45.8769L32.1299 45.877C31.9482 45.9166 31.7665 45.9562 31.5865 46.0019C31.4453 46.021 31.3047 46.0436 31.1643 46.0662L31.1641 46.0662C30.8901 46.1102 30.6163 46.1542 30.3385 46.1729C30.0629 46.2421 29.7816 46.2532 29.5001 46.2642C29.3083 46.2718 29.1164 46.2793 28.9262 46.3052C28.2277 46.3348 27.5274 46.3219 26.8289 46.2966C26.683 46.2761 26.5354 46.2704 26.3879 46.2646C26.1366 46.2548 25.8857 46.2451 25.6449 46.1625C25.4194 46.1522 25.1976 46.1162 24.9758 46.0802C24.8 46.0517 24.6241 46.0232 24.4462 46.0074L24.4511 45.9034C24.2987 45.9829 24.1244 45.9371 23.9682 45.8961L23.9655 45.8954C23.7818 45.8366 23.5947 45.7899 23.4078 45.7432C23.1914 45.6891 22.9752 45.6351 22.7643 45.5625C22.4451 45.4857 22.139 45.3692 21.8329 45.2527L21.8329 45.2527C21.6139 45.1694 21.3949 45.086 21.1711 45.0172C20.2185 44.6302 19.2954 44.1692 18.4246 43.6216C18.2663 43.5366 18.1186 43.4352 17.9709 43.3338L17.9708 43.3338C17.8213 43.2312 17.6718 43.1286 17.5114 43.0431C16.2351 42.1034 15.0191 41.0616 14.0203 39.8246C13.8326 39.6209 13.6542 39.4086 13.5077 39.1729C12.7422 38.2609 12.1495 37.2166 11.5957 36.1668C11.3274 35.6349 11.1021 35.0841 10.8769 34.5336C10.8423 34.4491 10.8077 34.3645 10.7729 34.28C10.6882 34.0846 10.6316 33.8797 10.575 33.6747C10.5404 33.5492 10.5057 33.4237 10.4646 33.3003C10.1988 32.4542 10.0209 31.5828 9.87569 30.7089C9.86009 30.4516 9.82492 30.1963 9.78976 29.941C9.74035 29.5823 9.69097 29.2238 9.696 28.8603C9.696 28.6576 9.69387 28.4547 9.69173 28.2517C9.68414 27.5296 9.67654 26.8064 9.76492 26.0892C9.80492 25.8665 9.82339 25.6412 9.83323 25.416C9.8377 25.2639 9.87514 25.1178 9.91259 24.9717C9.94224 24.8561 9.97191 24.7404 9.98523 24.6216C10.024 24.335 10.0884 24.0538 10.1528 23.7725L10.1528 23.7725L10.1528 23.7725C10.1783 23.6612 10.2038 23.5498 10.2277 23.4382C10.2583 23.2548 10.3173 23.0794 10.3764 22.9039C10.4266 22.7549 10.4768 22.6057 10.5095 22.4517C10.6985 21.8474 10.9114 21.248 11.1643 20.6659C11.8012 19.2351 12.5717 17.8548 13.5631 16.6388C15.6542 13.8825 18.5926 11.8136 21.8314 10.6265C22.6062 10.3674 23.3865 10.12 24.1877 9.95694C24.4394 9.92205 24.6879 9.86991 24.9362 9.81783C25.0164 9.80103 25.0965 9.78423 25.1766 9.76802C25.301 9.74202 25.4276 9.73829 25.5542 9.73456C25.6912 9.73052 25.8281 9.72649 25.9618 9.69417ZM26.8917 10.8265C25.1963 10.9219 23.5163 11.2929 21.9317 11.9059C18.4474 13.2209 15.4462 15.7342 13.4782 18.8899C12.3705 20.6597 11.6031 22.6388 11.2111 24.6892C10.9292 26.1016 10.8745 27.5496 10.9311 28.9859C11.0658 31.016 11.5182 33.0376 12.3662 34.8917C12.9932 36.3323 13.8277 37.6819 14.8351 38.888C15.8898 40.1686 17.1243 41.3083 18.5175 42.2105C18.7071 42.3587 18.9147 42.4779 19.1223 42.5971L19.1224 42.5971L19.1225 42.5972C19.239 42.6641 19.3555 42.731 19.4689 42.8031C21.4166 43.9311 23.5889 44.6739 25.8228 44.9594C27.8154 45.208 29.8542 45.128 31.8117 44.6708C35.544 43.8425 38.9828 41.7169 41.3655 38.7243C41.6151 38.4351 41.8296 38.119 42.044 37.8031L42.0441 37.803C42.169 37.6189 42.294 37.4348 42.4258 37.256C43.6443 35.3699 44.4868 33.2419 44.8898 31.0326C44.9115 30.8673 44.9407 30.7029 44.9698 30.5384C45.0257 30.2223 45.0817 29.9062 45.0849 29.584C44.7302 29.6274 44.3737 29.6501 44.0171 29.6727C43.6803 29.6942 43.3434 29.7156 43.008 29.7545C42.5776 29.7867 42.1474 29.822 41.7172 29.8573C41.3096 29.8908 40.9019 29.9243 40.4942 29.9551C40.2074 29.9674 39.9212 29.9877 39.6382 30.0314C39.4459 30.9561 39.2383 31.8774 39.0308 32.7988L39.0307 32.799C38.841 33.6411 38.6513 34.4832 38.4732 35.328C38.3177 34.9901 38.1716 34.6481 38.0255 34.3061L38.0255 34.306C37.9207 34.0607 37.8159 33.8154 37.7077 33.5717C37.4745 33.1083 37.2597 32.6363 37.0683 32.1545C36.9099 31.8319 36.776 31.4991 36.6421 31.1662C36.533 30.8951 36.4239 30.6239 36.3015 30.3582C36.056 30.3625 35.8111 30.3828 35.5668 30.4049C34.9993 30.4939 34.4274 30.549 33.8557 30.6042L33.8556 30.6042L33.8553 30.6042C33.6478 30.6242 33.4404 30.6442 33.2332 30.6659C32.7869 30.6703 32.3439 30.7203 31.9009 30.7703C31.5492 30.8099 31.1975 30.8496 30.8443 30.8665L30.8929 30.8293L30.8929 30.8293C30.9507 30.7852 31.0085 30.7411 31.0652 30.6954C31.7484 30.0918 32.4273 29.4833 33.1062 28.8749L33.1063 28.8747C33.7084 28.335 34.3106 27.7954 34.9157 27.2591C34.5882 26.5298 34.2555 25.8026 33.9228 25.0753C33.5095 24.1721 33.0962 23.2687 32.6929 22.3612C33.6842 22.8948 34.6534 23.4679 35.6225 24.041L35.6226 24.0411C36.187 24.3748 36.7513 24.7086 37.32 25.0345C37.3957 25.0917 37.4886 25.0726 37.5495 25.0031C38.0958 24.5079 38.6438 24.0142 39.1918 23.5205L39.192 23.5204L39.1925 23.5199C39.9715 22.8182 40.7505 22.1163 41.5249 21.4099C41.3061 22.2982 41.106 23.191 40.906 24.0837C40.7179 24.9232 40.5298 25.7625 40.3262 26.5982C40.324 26.6121 40.3208 26.6269 40.3175 26.6421C40.3019 26.7144 40.2844 26.7954 40.3698 26.8289C40.772 27.0606 41.1719 27.2962 41.5718 27.5317L41.5721 27.5318C42.077 27.8292 42.5818 28.1265 43.0911 28.416C43.2464 28.5077 43.4013 28.6005 43.5563 28.6933C44.0704 29.0013 44.5852 29.3097 45.12 29.5779C45.1236 29.3293 45.1327 29.0807 45.1419 28.832V28.832C45.1627 28.2679 45.1835 27.7037 45.1391 27.1403C45.0357 24.8222 44.4197 22.5409 43.4265 20.448C43.3891 20.282 43.3087 20.134 43.2283 19.9863L43.2283 19.9863C43.1419 19.8273 43.0556 19.6686 43.0234 19.488L43.019 19.4831C42.9226 19.3752 42.8254 19.2664 42.7551 19.1391C42.4283 18.5932 42.0818 18.0597 41.6862 17.5606C41.5831 17.3785 41.4444 17.2245 41.3056 17.0703L41.3056 17.0703C41.2123 16.9667 41.1189 16.8631 41.0363 16.7508C38.8043 14.1612 35.7902 12.2468 32.4825 11.368C30.6677 10.8708 28.768 10.7046 26.8917 10.8265ZM38.3549 25.5993C38.5734 25.4118 38.7919 25.2243 39.0111 25.0376C39.086 24.975 39.1588 24.9098 39.2317 24.8444C39.3941 24.6989 39.5567 24.5531 39.7428 24.4376C39.7321 24.6289 39.6908 24.8152 39.6496 25.0016C39.6292 25.094 39.6087 25.1864 39.592 25.2794C39.5241 25.6451 39.4512 26.0097 39.3783 26.3742C39.3164 26.6838 39.2545 26.9934 39.1957 27.3034C39.5561 27.495 39.9074 27.7032 40.2587 27.9113C40.5325 28.0735 40.8062 28.2357 41.0843 28.3902C41.1709 28.4439 41.2601 28.4935 41.3493 28.5431C41.5186 28.6373 41.6878 28.7314 41.8394 28.8536C41.5762 28.9132 41.3081 28.9224 41.04 28.9315C40.8574 28.9377 40.6748 28.944 40.4935 28.9662C39.9644 29.0049 39.4353 29.0357 38.9062 29.0665L38.9059 29.0665C38.7871 29.5123 38.6763 29.9603 38.5656 30.4082C38.4348 30.9372 38.304 31.4662 38.16 31.9914C37.9082 31.5101 37.6912 31.0112 37.4743 30.5125C37.2958 30.1019 37.1172 29.6915 36.9194 29.2911C36.5168 29.2736 36.1154 29.3141 35.714 29.3546C35.4785 29.3784 35.2431 29.4021 35.0074 29.4142C34.86 29.418 34.7131 29.4325 34.5662 29.4471C34.3328 29.4702 34.0995 29.4933 33.8646 29.4732C34.0957 29.2635 34.3275 29.0545 34.5593 28.8455C35.0784 28.3775 35.5976 27.9093 36.1089 27.432C35.9491 27.1033 35.7941 26.7725 35.6392 26.4417C35.4767 26.0949 35.3143 25.7483 35.1465 25.4043C35.1334 25.3781 35.1203 25.3519 35.1072 25.3258C35.0166 25.1453 34.9257 24.9643 34.8714 24.7692C35.3464 25.0246 35.8101 25.3007 36.2739 25.5768C36.6898 25.8243 37.1057 26.0719 37.5299 26.3046C37.8057 26.0705 38.0803 25.8349 38.3549 25.5993Z" fill="#FEC001"/>
<path fill-rule="evenodd" clip-rule="evenodd" d="M15.984 16.4695C16.0154 16.3545 16.1434 16.3428 16.2431 16.3446C19.2997 16.344 22.3563 16.3409 25.4129 16.3458C25.5908 16.3458 25.7662 16.3766 25.9397 16.4123C25.8203 16.7458 25.7299 17.0886 25.6634 17.4369C24.9052 17.4634 24.1403 17.4031 23.3865 17.5052C22.9803 17.6843 22.6548 18.0277 22.4505 18.4191C22.2443 19.0695 22.3139 19.7606 22.3052 20.432C22.32 21.4209 22.304 22.4105 22.3108 23.3988C22.3274 23.0597 22.3151 22.72 22.3532 22.3821C22.3735 23.3305 22.3723 24.2794 22.384 25.2277C22.4412 26.1717 22.4037 27.1181 22.416 28.0634C22.4006 28.3932 22.4751 28.7175 22.4855 29.0461C22.4862 30.2978 22.4954 31.5495 22.5022 32.8012C22.5692 33.4997 22.5428 34.2018 22.5588 34.9028C22.8105 34.4763 23.1212 34.0892 23.3717 33.6628C23.5551 33.3606 23.7655 33.0769 23.9532 32.7778C24.9329 31.2234 25.9723 29.7089 26.9317 28.1421C27.0535 27.9631 27.1914 27.7834 27.2019 27.5575C27.2339 27.5563 27.2978 27.5538 27.3298 27.5526C28.0277 26.4541 28.7655 25.3815 29.4437 24.2708C29.7908 23.7914 30.0702 23.2677 30.4203 22.7908C30.9342 21.9883 31.4603 21.1932 31.9563 20.3791C32.2911 19.7705 32.6265 19.0886 32.4917 18.3735C32.3988 17.9218 31.9754 17.6418 31.5619 17.5151C31.2246 17.4381 30.8769 17.4486 30.5335 17.4449C30.5489 17.0849 30.6425 16.7366 30.7415 16.3926C30.8948 16.3686 31.0492 16.3477 31.2049 16.3458C32.4535 16.3421 33.7028 16.3458 34.952 16.3403C35.0775 16.3415 35.2037 16.3471 35.3292 16.3606C36.1785 16.4418 37.0351 16.3698 37.8868 16.3957C37.7723 16.7255 37.6677 17.0591 37.5668 17.3938C37.1452 17.4437 36.6972 17.4449 36.3225 17.6689C35.8394 17.9489 35.4302 18.3372 35.0345 18.7268C34.3939 19.3594 33.9286 20.1348 33.4185 20.8701C29.7569 26.5588 26.088 32.2431 22.4222 37.9298C21.8739 38.7938 21.2978 39.6412 20.7717 40.5188C20.3766 40.5329 19.9809 40.512 19.5871 40.5483C19.3871 40.2154 19.5058 39.8098 19.4714 39.4431C19.3871 38.256 19.4597 37.0634 19.4055 35.8751C19.3132 35.3268 19.3735 34.7698 19.3446 34.2178C19.2523 33.2763 19.3335 32.328 19.2825 31.3846C19.1865 30.7274 19.2812 30.0597 19.2012 29.4012C19.24 28.9766 19.232 28.5489 19.1883 28.1249C19.1446 27.1612 19.2203 26.192 19.1132 25.2314C19.0929 24.6985 19.1329 24.1631 19.0769 23.6314C19.0597 23.4683 19.0529 23.3046 19.0529 23.1415C19.0591 21.9711 19.0302 20.8006 19.0492 19.6295C19.0726 19.0117 18.8739 18.3711 18.4517 17.912C18.168 17.6609 17.7963 17.504 17.4172 17.4849C16.8671 17.4455 16.3145 17.4283 15.7631 17.4505C15.792 17.1163 15.8578 16.7815 15.984 16.4695Z" fill="#FEC001"/>
<path fill-rule="evenodd" clip-rule="evenodd" d="M32.9095 30.9366C33.616 30.9834 34.3169 30.76 35.0258 30.7932C34.9305 31.0456 34.7766 31.2683 34.6228 31.488C32.7391 34.3859 30.8628 37.288 28.9772 40.1846C28.9034 40.2997 28.8357 40.4179 28.7692 40.5372C28.0375 40.5576 27.3052 40.552 26.5735 40.5372C26.6972 40.2985 26.8529 40.0782 27.0031 39.856C28.7317 37.1976 30.4548 34.536 32.1858 31.8794C32.4012 31.5471 32.5945 31.1871 32.9095 30.9366Z" fill="#FEC001"/>
<path fill-rule="evenodd" clip-rule="evenodd" d="M36.4677 31.5656C36.5994 31.7859 36.7489 32.0062 36.7883 32.2659C36.8517 32.6585 37.152 32.9619 37.2129 33.3563C37.2757 33.4093 37.3508 33.4542 37.3883 33.5317C37.3686 33.7145 37.2523 33.8696 37.1655 34.0271C35.9391 35.9385 34.7126 37.8505 33.4874 39.7625C33.3126 40.0437 33.1206 40.3133 32.9594 40.6019C32.2025 40.621 31.4443 40.6105 30.6868 40.6056C32.0191 38.4923 33.3791 36.3963 34.7151 34.285C35.3052 33.3828 35.8603 32.4566 36.4677 31.5656Z" fill="#FEC001"/>
<path fill-rule="evenodd" clip-rule="evenodd" d="M36.6247 14.3995L36.6248 14.3994L36.6249 14.3992C36.8198 14.0924 37.0146 13.7856 37.2129 13.4812C37.3145 13.5517 37.4165 13.6218 37.5186 13.692L37.5186 13.692C38.168 14.1384 38.8198 14.5865 39.392 15.1311C39.469 15.2024 39.5482 15.2713 39.6275 15.3402L39.6275 15.3402C39.7568 15.4525 39.8861 15.5648 40.0055 15.688C40.0783 15.7623 40.1516 15.8362 40.2249 15.9102C40.6549 16.344 41.0871 16.78 41.4209 17.2942C42.0332 17.9563 42.5065 18.7329 42.9428 19.5182C43.136 19.8105 43.2868 20.1274 43.4265 20.448C44.4197 22.5409 45.0357 24.8222 45.1391 27.1403C45.1835 27.7037 45.1627 28.2679 45.1419 28.832V28.832L45.1419 28.8322C45.1327 29.0808 45.1236 29.3294 45.12 29.5778C44.5852 29.3097 44.0704 29.0013 43.5563 28.6933L43.556 28.6931C43.4011 28.6003 43.2463 28.5076 43.0911 28.416C42.5817 28.1265 42.0768 27.8291 41.5718 27.5317L41.5718 27.5316C41.1719 27.2961 40.772 27.0606 40.3698 26.8289C40.2844 26.7954 40.3019 26.7143 40.3175 26.6421C40.3208 26.6269 40.324 26.6121 40.3262 26.5982C40.5298 25.7625 40.7179 24.9231 40.906 24.0837C41.106 23.191 41.3061 22.2982 41.5249 21.4098C40.7503 22.1165 39.971 22.8185 39.1918 23.5205L39.1917 23.5207C38.6437 24.0143 38.0958 24.5079 37.5495 25.0031C37.4886 25.0726 37.3957 25.0917 37.32 25.0345C36.7514 24.7086 36.1871 24.3749 35.6228 24.0412L35.6226 24.0411C34.6535 23.468 33.6843 22.8948 32.6929 22.3612C33.0962 23.2687 33.5095 24.1721 33.9228 25.0753L33.9228 25.0754C34.2556 25.8026 34.5883 26.5298 34.9157 27.2591C34.3105 27.7954 33.7083 28.3351 33.1062 28.8748L33.106 28.875C32.4272 29.4834 31.7484 30.0918 31.0652 30.6954C31.0085 30.7411 30.9506 30.7852 30.8928 30.8294L30.8443 30.8665C31.1975 30.8496 31.5491 30.8099 31.9008 30.7703L31.9009 30.7702C32.3439 30.7203 32.7869 30.6703 33.2332 30.6658C33.4404 30.6442 33.6478 30.6242 33.8552 30.6042L33.8556 30.6042L33.8557 30.6042C34.4274 30.549 34.9993 30.4939 35.5668 30.4049C35.8111 30.3828 36.056 30.3625 36.3015 30.3582C36.4239 30.6239 36.533 30.895 36.6421 31.1661L36.6421 31.1662C36.776 31.4991 36.9099 31.8319 37.0683 32.1545C37.2597 32.6363 37.4745 33.1083 37.7077 33.5717C37.8159 33.8154 37.9207 34.0607 38.0255 34.306C38.1716 34.648 38.3177 34.9901 38.4732 35.328C38.6513 34.4832 38.841 33.641 39.0307 32.799L39.0308 32.7987C39.2383 31.8774 39.4459 30.9561 39.6382 30.0314C39.9212 29.9877 40.2074 29.9674 40.4942 29.9551C40.9017 29.9243 41.3091 29.8908 41.7165 29.8574L41.7173 29.8573L41.7175 29.8573C42.1476 29.822 42.5777 29.7867 43.008 29.7545C43.3434 29.7156 43.6803 29.6942 44.0171 29.6727C44.3737 29.65 44.7302 29.6274 45.0849 29.584C45.0817 29.9062 45.0257 30.2223 44.9698 30.5384L44.9698 30.5384L44.9697 30.5385C44.9406 30.7029 44.9115 30.8673 44.8898 31.0326C44.4868 33.2418 43.6443 35.3698 42.4258 37.256C42.294 37.4348 42.169 37.6189 42.0441 37.803L42.0441 37.803C41.8296 38.119 41.6152 38.435 41.3655 38.7243C38.9828 41.7169 35.544 43.8425 31.8117 44.6708C29.8542 45.128 27.8154 45.208 25.8228 44.9594C23.5889 44.6738 21.4166 43.9311 19.4689 42.8031C19.3555 42.731 19.239 42.6641 19.1225 42.5972L19.1224 42.5971C18.9147 42.4779 18.7072 42.3587 18.5175 42.2105C18.6014 42.0843 18.6862 41.9588 18.7711 41.8332C19.0554 41.4126 19.3397 40.9919 19.5871 40.5483C19.8313 40.5258 20.0762 40.5253 20.3212 40.5248C20.4714 40.5245 20.6216 40.5241 20.7717 40.5188C21.1102 39.9542 21.4693 39.4021 21.8285 38.85L21.8285 38.85C22.0276 38.544 22.2266 38.238 22.4222 37.9298C23.5754 36.1408 24.729 34.3519 25.8826 32.5632L25.8845 32.5602C28.397 28.6641 30.9095 24.7681 33.4185 20.8702C33.5252 20.7163 33.63 20.5606 33.7349 20.4049C34.131 19.8165 34.5279 19.227 35.0345 18.7268C35.4302 18.3372 35.8394 17.9489 36.3225 17.6689C36.629 17.4857 36.9845 17.4515 37.3345 17.4179C37.4124 17.4104 37.49 17.4029 37.5668 17.3938C37.6677 17.0591 37.7723 16.7255 37.8868 16.3957C37.5549 16.3856 37.2222 16.3904 36.8895 16.3952C36.3686 16.4027 35.8475 16.4102 35.3292 16.3606C35.7844 15.7226 36.2046 15.061 36.6247 14.3995ZM32.9095 30.9366C32.6486 31.144 32.4712 31.4266 32.2956 31.7064L32.2955 31.7065C32.2591 31.7645 32.2228 31.8223 32.1858 31.8794C31.1515 33.4667 30.12 35.0558 29.0885 36.645L29.0876 36.6464L29.0867 36.6479C28.3924 37.7174 27.6982 38.7869 27.0031 39.856L26.9433 39.9441L26.9433 39.9441C26.8123 40.1368 26.6809 40.3301 26.5735 40.5372C27.3052 40.552 28.0375 40.5575 28.7692 40.5372C28.8357 40.4178 28.9034 40.2997 28.9772 40.1846C30.0284 38.5697 31.0768 36.9531 32.1251 35.3365L32.1257 35.3356C32.9576 34.0528 33.7894 32.77 34.6228 31.488C34.7766 31.2683 34.9305 31.0455 35.0258 30.7932C34.6802 30.777 34.3365 30.8218 33.9932 30.8665C33.6322 30.9136 33.2716 30.9606 32.9095 30.9366ZM35.417 33.1868C35.761 32.6423 36.105 32.0977 36.4677 31.5656C36.4832 31.5914 36.4989 31.6173 36.5146 31.6433C36.633 31.8382 36.7536 32.0367 36.7883 32.2659C36.8198 32.461 36.9098 32.6341 36.9999 32.8073C37.0911 32.9825 37.1823 33.1579 37.2129 33.3563C37.2268 33.368 37.2413 33.3794 37.2559 33.3907C37.3071 33.4307 37.3591 33.4713 37.3883 33.5317C37.3729 33.6751 37.2979 33.8015 37.2244 33.9254C37.2043 33.9594 37.1842 33.9932 37.1655 34.0271C35.9391 35.9385 34.7126 37.8505 33.4874 39.7625C33.4236 39.8652 33.3574 39.9663 33.2914 40.0674C33.1765 40.2431 33.0617 40.4186 32.9594 40.6019C32.3219 40.6179 31.6835 40.613 31.0453 40.6082C30.9258 40.6072 30.8063 40.6063 30.6868 40.6056C31.3977 39.478 32.1164 38.3553 32.8352 37.2326C33.4636 36.2512 34.0919 35.2697 34.7151 34.2849C34.9528 33.9215 35.1849 33.5542 35.417 33.1868Z" fill="#BD8F00"/>
<path fill-rule="evenodd" clip-rule="evenodd" d="M39.0111 25.0375C39.2529 24.8357 39.4732 24.6049 39.7428 24.4375C39.7268 24.7237 39.6425 24.9988 39.592 25.2794C39.4665 25.9557 39.3237 26.6283 39.1957 27.3034C39.8369 27.6443 40.4492 28.0375 41.0843 28.3901C41.3354 28.5458 41.608 28.6671 41.8394 28.8535C41.3969 28.9538 40.9409 28.9114 40.4935 28.9661C39.9643 29.0049 39.4351 29.0357 38.9058 29.0665C38.6468 30.0388 38.4258 31.0215 38.16 31.9914C37.7009 31.1138 37.3575 30.1778 36.9194 29.2911C36.2806 29.2634 35.6449 29.3815 35.0074 29.4141C34.6258 29.424 34.2474 29.5058 33.8646 29.4732C34.6129 28.7938 35.3692 28.1225 36.1089 27.432C35.7815 26.7588 35.4745 26.0763 35.1465 25.4043C35.0437 25.1975 34.9335 24.9926 34.8714 24.7692C35.7723 25.2535 36.6326 25.8123 37.5298 26.3046C38.0252 25.8843 38.5163 25.4591 39.0111 25.0375Z" fill="#BD8F00"/>
</svg>
